<?xml version="1.0" standalone="no"?>
<!DOCTYPE svg PUBLIC "-//W3C//DTD SVG 20010904//EN"
 "http://www.w3.org/TR/2001/REC-SVG-20010904/DTD/svg10.dtd">
<svg version="1.0" xmlns="http://www.w3.org/2000/svg"
 width="336.000000pt" height="336.000000pt" viewBox="0 0 336.000000 336.000000"
 preserveAspectRatio="xMidYMid meet">
<metadata>
Created by potrace 1.11, written by Peter Selinger 2001-2013
</metadata>
<g transform="translate(0.000000,336.000000) scale(0.100000,-0.100000)"
fill="#000000" stroke="none">
<path d="M2230 3201 c-37 -12 -100 -54 -139 -92 -34 -34 -121 -160 -121 -176
0 -4 -6 -20 -14 -34 -55 -105 -69 -354 -27 -469 51 -140 127 -205 236 -204
167 2 322 178 381 433 24 103 24 207 0 319 -17 77 -85 177 -146 211 -29 16
-135 24 -170 12z"/>
<path d="M970 3181 c-76 -25 -115 -61 -159 -149 -66 -130 -55 -363 24 -537
136 -298 406 -384 536 -170 49 82 64 146 62 280 -5 288 -190 566 -387 581 -28
2 -62 0 -76 -5z"/>
<path d="M165 2245 c-149 -38 -203 -249 -118 -464 89 -225 277 -391 445 -394
150 -2 233 107 223 291 -11 227 -174 469 -370 549 -68 28 -120 33 -180 18z"/>
<path d="M3095 2252 c-134 -22 -290 -155 -375 -321 -68 -135 -85 -302 -38
-402 58 -127 183 -158 334 -84 277 136 435 560 277 744 -47 55 -115 77 -198
63z"/>
<path d="M1533 1916 c-133 -50 -214 -137 -311 -336 -85 -175 -133 -241 -249
-340 -22 -19 -66 -57 -98 -85 -136 -117 -261 -244 -357 -363 -120 -149 -103
-382 38 -525 147 -148 426 -173 753 -67 139 44 268 64 431 64 208 1 293 -12
475 -74 112 -38 140 -43 240 -43 180 2 344 101 413 251 31 69 35 177 9 262
-36 120 -141 251 -327 410 -132 113 -260 243 -324 328 -35 45 -96 149 -136
229 -78 158 -127 218 -212 261 -110 56 -243 67 -345 28z"/>
</g>
</svg>
